<svg width="764" height="762" viewBox="0 0 764 762" fill="none" xmlns="http://www.w3.org/2000/svg">
<circle cx="384" cy="380" r="297" fill="black"/>
<circle cx="341.982" cy="331.55" r="2.52356" transform="rotate(-36 341.982 331.55)" fill="white"/>
<circle cx="320.751" cy="364.241" r="2.52356" transform="rotate(-72 320.751 364.241)" fill="white"/>
<circle cx="322.802" cy="403.168" r="2.52356" transform="rotate(-108 322.802 403.168)" fill="white"/>
<circle cx="347.305" cy="433.46" r="2.52356" transform="rotate(-144 347.305 433.46)" fill="white"/>
<circle cx="384.966" cy="443.568" r="2.52356" transform="rotate(180 384.966 443.568)" fill="white"/>
<circle cx="421.347" cy="429.593" r="2.52356" transform="rotate(144 421.347 429.593)" fill="white"/>
<circle cx="442.586" cy="396.911" r="2.52356" transform="rotate(108 442.586 396.911)" fill="white"/>
<circle cx="440.553" cy="357.985" r="2.52356" transform="rotate(72 440.553 357.985)" fill="white"/>
<circle cx="416.024" cy="327.683" r="2.52356" transform="rotate(36 416.024 327.683)" fill="white"/>
<circle cx="378.387" cy="317.6" r="2.52356" fill="white"/>
<circle cx="320.235" cy="327.084" r="4.28609" transform="rotate(-47.5036 320.235 327.084)" fill="white"/>
<circle cx="300.531" cy="373.398" r="4.28609" transform="rotate(-83.5036 300.531 373.398)" fill="white"/>
<circle cx="311.827" cy="422.443" r="4.28609" transform="rotate(-119.504 311.827 422.443)" fill="white"/>
<circle cx="349.748" cy="455.499" r="4.28609" transform="rotate(-155.504 349.748 455.499)" fill="white"/>
<circle cx="399.899" cy="459.949" r="4.28609" transform="rotate(168.496 399.899 459.949)" fill="white"/>
<circle cx="443.046" cy="434.059" r="4.28609" transform="rotate(132.496 443.046 434.059)" fill="white"/>
<circle cx="462.764" cy="387.754" r="4.28609" transform="rotate(96.4964 462.764 387.754)" fill="white"/>
<circle cx="451.491" cy="338.704" r="4.28609" transform="rotate(60.4964 451.491 338.704)" fill="white"/>
<circle cx="413.534" cy="305.643" r="4.28609" transform="rotate(24.4964 413.534 305.643)" fill="white"/>
<circle cx="363.419" cy="301.219" r="4.28609" transform="rotate(-11.5036 363.419 301.219)" fill="white"/>
<circle cx="294.893" cy="334.045" r="5.9292" transform="rotate(-61.2791 294.893 334.045)" fill="#F50606"/>
<circle cx="284.111" cy="393.909" r="5.9292" transform="rotate(-97.2791 284.111 393.909)" fill="#F50606"/>
<circle cx="310.594" cy="448.669" r="5.9292" transform="rotate(-133.279 310.594 448.669)" fill="#F50606"/>
<circle cx="364.155" cy="477.44" r="5.9292" transform="rotate(-169.279 364.155 477.44)" fill="#F50606"/>
<circle cx="424.448" cy="469.214" r="5.9292" transform="rotate(154.721 424.448 469.214)" fill="#F50606"/>
<circle cx="468.338" cy="427.118" r="5.9292" transform="rotate(118.721 468.338 427.118)" fill="#F50606"/>
<circle cx="479.138" cy="367.26" r="5.9292" transform="rotate(82.7209 479.138 367.26)" fill="#F50606"/>
<circle cx="452.682" cy="312.488" r="5.9292" transform="rotate(46.7209 452.682 312.488)" fill="#F50606"/>
<circle cx="399.076" cy="283.723" r="5.9292" transform="rotate(10.7209 399.076 283.723)" fill="#F50606"/>
<circle cx="338.835" cy="291.967" r="5.9292" transform="rotate(-25.2791 338.835 291.967)" fill="#F50606"/>
<circle cx="268.818" cy="350.628" r="7.94921" transform="rotate(-75.5851 268.818 350.628)" fill="#E01010"/>
<circle cx="272.748" cy="422.639" r="7.94921" transform="rotate(-111.585 272.748 422.639)" fill="#E01010"/>
<circle cx="318.274" cy="478.571" r="7.94921" transform="rotate(-147.585 318.274 478.571)" fill="#E01010"/>
<circle cx="387.931" cy="497.118" r="7.94921" transform="rotate(176.415 387.931 497.118)" fill="#E01010"/>
<circle cx="455.239" cy="471.142" r="7.94921" transform="rotate(140.415 455.239 471.142)" fill="#E01010"/>
<circle cx="494.363" cy="410.577" r="7.94921" transform="rotate(104.415 494.363 410.577)" fill="#E01010"/>
<circle cx="490.455" cy="338.568" r="7.94921" transform="rotate(68.4149 490.455 338.568)" fill="#E01010"/>
<circle cx="444.959" cy="282.614" r="7.94921" transform="rotate(32.4149 444.959 282.614)" fill="#E01010"/>
<circle cx="375.25" cy="264.087" r="7.94921" transform="rotate(-3.58511 375.25 264.087)" fill="#E01010"/>
<circle cx="308.007" cy="290.07" r="7.94921" transform="rotate(-39.5851 308.007 290.07)" fill="#E01010"/>
<circle cx="247.156" cy="376.768" r="10.1288" transform="rotate(-89.7132 247.156 376.768)" fill="#FE0707"/>
<circle cx="270.568" cy="456.512" r="10.1288" transform="rotate(-125.713 270.568 456.512)" fill="#FE0707"/>
<circle cx="336.398" cy="507.241" r="10.1288" transform="rotate(-161.713 336.398 507.241)" fill="#FE0707"/>
<circle cx="419.432" cy="509.665" r="10.1288" transform="rotate(162.287 419.432 509.665)" fill="#FE0707"/>
<circle cx="488.083" cy="462.764" r="10.1288" transform="rotate(126.287 488.083 462.764)" fill="#FE0707"/>
<circle cx="515.988" cy="384.501" r="10.1288" transform="rotate(90.2868 515.988 384.501)" fill="#FE0707"/>
<circle cx="492.602" cy="304.752" r="10.1288" transform="rotate(54.2868 492.602 304.752)" fill="#FE0707"/>
<circle cx="426.799" cy="253.99" r="10.1288" transform="rotate(18.2868 426.799 253.99)" fill="#FE0707"/>
<circle cx="343.712" cy="251.603" r="10.1288" transform="rotate(-17.7132 343.712 251.603)" fill="#FE0707"/>
<circle cx="275.138" cy="298.494" r="10.1288" transform="rotate(-53.7132 275.138 298.494)" fill="#FE0707"/>
<circle cx="231.01" cy="409.48" r="12.3878" transform="rotate(-102.898 231.01 409.48)" fill="#FD0B0B"/>
<circle cx="276.661" cy="492.384" r="12.3878" transform="rotate(-138.898 276.661 492.384)" fill="#FD0B0B"/>
<circle cx="362.348" cy="532.559" r="12.3878" transform="rotate(-174.898 362.348 532.559)" fill="#FD0B0B"/>
<circle cx="455.235" cy="514.892" r="12.3878" transform="rotate(149.102 455.235 514.892)" fill="#FD0B0B"/>
<circle cx="520.077" cy="445.846" r="12.3878" transform="rotate(113.102 520.077 445.846)" fill="#FD0B0B"/>
<circle cx="531.821" cy="351.982" r="12.3878" transform="rotate(77.1016 531.821 351.982)" fill="#FD0B0B"/>
<circle cx="486.226" cy="269.055" r="12.3878" transform="rotate(41.1016 486.226 269.055)" fill="#FD0B0B"/>
<circle cx="400.581" cy="228.792" r="12.3878" transform="rotate(5.10157 400.581 228.792)" fill="#FD0B0B"/>
<circle cx="307.596" cy="246.57" r="12.3878" transform="rotate(-30.8984 307.596 246.57)" fill="#FD0B0B"/>
<circle cx="242.92" cy="315.55" r="12.3878" transform="rotate(-66.8984 242.92 315.55)" fill="#FD0B0B"/>
<circle cx="223.637" cy="452.582" r="14.0156" transform="rotate(-116.554 223.637 452.582)" fill="#FD0808"/>
<circle cx="295.909" cy="531.525" r="14.0156" transform="rotate(-152.554 295.909 531.525)" fill="#FD0808"/>
<circle cx="400.791" cy="552.796" r="14.0156" transform="rotate(171.446 400.791 552.796)" fill="#FD0808"/>
<circle cx="498.148" cy="508.695" r="14.0156" transform="rotate(135.446 498.148 508.695)" fill="#FD0808"/>
<circle cx="551.056" cy="415.511" r="14.0156" transform="rotate(99.4455 551.056 415.511)" fill="#FD0808"/>
<circle cx="538.917" cy="309.253" r="14.0156" transform="rotate(63.4455 538.917 309.253)" fill="#FD0808"/>
<circle cx="466.728" cy="230.251" r="14.0156" transform="rotate(27.4455 466.728 230.251)" fill="#FD0808"/>
<circle cx="361.876" cy="208.819" r="14.0156" transform="rotate(-8.55449 361.876 208.819)" fill="#FD0808"/>
<circle cx="264.407" cy="253.139" r="14.0156" transform="rotate(-44.5545 264.407 253.139)" fill="#FD0808"/>
<circle cx="211.743" cy="346.151" r="14.0156" transform="rotate(-80.5545 211.743 346.151)" fill="#FD0808"/>
<circle cx="229.604" cy="499.797" r="15.2696" transform="rotate(-129.957 229.604 499.797)" fill="#FC0B0B"/>
<circle cx="328.431" cy="566.246" r="15.2696" transform="rotate(-165.957 328.431 566.246)" fill="#FC0B0B"/>
<circle cx="447.425" cy="561.786" r="15.2696" transform="rotate(158.043 447.425 561.786)" fill="#FC0B0B"/>
<circle cx="541.158" cy="488.598" r="15.2696" transform="rotate(122.043 541.158 488.598)" fill="#FC0B0B"/>
<circle cx="573.973" cy="373.975" r="15.2696" transform="rotate(86.0432 573.973 373.975)" fill="#FC0B0B"/>
<circle cx="533.021" cy="262.243" r="15.2696" transform="rotate(50.0432 533.021 262.243)" fill="#FC0B0B"/>
<circle cx="434.267" cy="195.712" r="15.2696" transform="rotate(14.0432 434.267 195.712)" fill="#FC0B0B"/>
<circle cx="315.266" cy="199.991" r="15.2696" transform="rotate(-21.9568 315.266 199.991)" fill="#FC0B0B"/>
<circle cx="221.467" cy="273.443" r="15.2696" transform="rotate(-57.9568 221.467 273.443)" fill="#FC0B0B"/>
<circle cx="188.871" cy="387.82" r="15.2696" transform="rotate(-93.9568 188.871 387.82)" fill="#FC0B0B"/>
<circle cx="247.537" cy="548.392" r="16.6" transform="rotate(-143.016 247.537 548.392)" fill="#FD0707"/>
<circle cx="371.449" cy="595.062" r="16.6" transform="rotate(-179.016 371.449 595.062)" fill="#FD0707"/>
<circle cx="499.077" cy="559.85" r="16.6" transform="rotate(144.984 499.077 559.85)" fill="#FD0707"/>
<circle cx="581.819" cy="456.715" r="16.6" transform="rotate(108.984 581.819 456.715)" fill="#FD0707"/>
<circle cx="588.059" cy="324.299" r="16.6" transform="rotate(72.9843 588.059 324.299)" fill="#FD0707"/>
<circle cx="515.212" cy="213.848" r="16.6" transform="rotate(36.9843 515.212 213.848)" fill="#FD0707"/>
<circle cx="391.359" cy="167.071" r="16.6" transform="rotate(0.984322 391.359 167.071)" fill="#FD0707"/>
<circle cx="263.676" cy="202.089" r="16.6" transform="rotate(-35.0157 263.676 202.089)" fill="#FD0707"/>
<circle cx="180.93" cy="305.525" r="16.6" transform="rotate(-71.0157 180.93 305.525)" fill="#FD0707"/>
<circle cx="174.864" cy="437.62" r="16.6" transform="rotate(-107.016 174.864 437.62)" fill="#FD0707"/>
<circle cx="280.532" cy="592.759" r="18.1633" transform="rotate(-156.173 280.532 592.759)" fill="#FF0A0A"/>
<circle cx="424.177" cy="611.622" r="18.1633" transform="rotate(167.827 424.177 611.622)" fill="#FF0A0A"/>
<circle cx="551.389" cy="542.319" r="18.1633" transform="rotate(131.827 551.389 542.319)" fill="#FF0A0A"/>
<circle cx="613.86" cy="411.827" r="18.1633" transform="rotate(95.8272 613.86 411.827)" fill="#FF0A0A"/>
<circle cx="587.618" cy="268.862" r="18.1633" transform="rotate(59.8272 587.618 268.862)" fill="#FF0A0A"/>
<circle cx="482.405" cy="169.264" r="18.1633" transform="rotate(23.8272 482.405 169.264)" fill="#FF0A0A"/>
<circle cx="338.797" cy="150.661" r="18.1633" transform="rotate(-12.1728 338.797 150.661)" fill="#FF0A0A"/>
<circle cx="211.522" cy="219.845" r="18.1633" transform="rotate(-48.1728 211.522 219.845)" fill="#FF0A0A"/>
<circle cx="149.033" cy="350.51" r="18.1633" transform="rotate(-84.1728 149.033 350.51)" fill="#FF0A0A"/>
<circle cx="175.515" cy="492.837" r="18.1633" transform="rotate(-120.173 175.515 492.837)" fill="#FF0A0A"/>
</svg>
