<svg width="3786" height="640" viewBox="0 0 3786 640" fill="none" xmlns="http://www.w3.org/2000/svg">
<path d="M215.91 145.455H313.211L272.018 394.744C267.993 418.419 258.642 439.252 243.964 457.244C229.286 475.118 210.761 489.086 188.389 499.148C166.017 509.091 141.336 514.063 114.348 514.063C91.1469 514.063 70.5503 510.038 52.5579 501.989C34.6838 493.821 21.4263 481.037 12.7852 463.636C4.26243 446.117 2.36849 423.39 7.10334 395.455H105.825C104.641 404.688 104.878 412.441 106.535 418.715C108.192 424.87 111.27 429.545 115.768 432.742C120.266 435.819 126.185 437.358 133.524 437.358C140.863 437.358 147.314 435.76 152.877 432.564C158.441 429.25 163.057 424.456 166.727 418.182C170.396 411.79 173.06 403.977 174.717 394.744L215.91 145.455ZM431.73 514.063C402.138 514.063 377.753 508.203 358.577 496.484C339.519 484.647 326.143 468.194 318.449 447.124C310.755 425.935 309.216 401.373 313.833 373.438C318.449 345.502 328.096 320.999 342.775 299.929C357.453 278.741 376.333 262.287 399.415 250.568C422.498 238.731 448.894 232.813 478.605 232.813C508.08 232.813 532.346 238.731 551.404 250.568C570.58 262.287 584.015 278.741 591.709 299.929C599.522 320.999 601.12 345.502 596.503 373.438C591.887 401.373 582.18 425.935 567.384 447.124C552.587 468.194 533.648 484.647 510.566 496.484C487.602 508.203 461.323 514.063 431.73 514.063ZM443.804 441.619C452.327 441.619 460.08 438.838 467.064 433.274C474.167 427.711 480.203 419.78 485.175 409.482C490.265 399.183 493.994 386.932 496.361 372.727C498.729 358.404 499.084 346.153 497.426 335.973C495.769 325.675 492.337 317.744 487.128 312.18C481.92 306.617 475.054 303.835 466.532 303.835C458.009 303.835 450.196 306.617 443.094 312.18C435.992 317.744 429.955 325.675 424.983 335.973C420.012 346.153 416.342 358.404 413.975 372.727C411.607 386.932 411.193 399.183 412.732 409.482C414.389 419.78 417.822 427.711 423.03 433.274C428.357 438.838 435.282 441.619 443.804 441.619ZM810.282 389.773L835.85 236.364H933.861L888.407 509.091H795.367L803.89 457.244H801.049C792.644 474.645 780.097 488.258 763.407 498.082C746.835 507.789 728.369 512.642 708.009 512.642C688.951 512.642 673.03 508.262 660.246 499.503C647.462 490.743 638.407 478.67 633.08 463.281C627.753 447.893 626.688 430.256 629.884 410.369L659.003 236.364H757.015L731.446 389.773C729.434 403.267 731.15 413.861 736.596 421.555C742.159 429.25 751.096 433.097 763.407 433.097C771.574 433.097 778.913 431.38 785.424 427.947C792.052 424.396 797.498 419.425 801.759 413.033C806.139 406.522 808.98 398.769 810.282 389.773ZM938.256 509.091L983.71 236.364H1078.88L1070.36 288.21H1073.2C1081.37 269.034 1091.61 255.007 1103.92 246.129C1116.23 237.251 1129.66 232.813 1144.22 232.813C1148.48 232.813 1152.57 233.168 1156.47 233.878C1160.5 234.47 1164.46 235.298 1168.37 236.364L1154.16 320.17C1149.55 318.395 1143.81 317.152 1136.94 316.442C1130.08 315.613 1123.98 315.199 1118.65 315.199C1109.18 315.199 1100.31 317.389 1092.02 321.768C1083.85 326.03 1076.87 332.067 1071.07 339.879C1065.39 347.573 1061.6 356.629 1059.7 367.045L1036.27 509.091H938.256ZM1279.34 355.682L1253.77 509.091H1155.76L1201.22 236.364H1294.26L1285.73 288.21H1288.58C1297.22 270.81 1309.82 257.256 1326.39 247.55C1343.09 237.725 1361.49 232.813 1381.62 232.813C1400.91 232.813 1416.95 237.192 1429.73 245.952C1442.52 254.711 1451.57 266.785 1456.9 282.173C1462.23 297.562 1463.17 315.199 1459.74 335.085L1430.62 509.091H1332.61L1358.18 355.682C1360.43 342.188 1358.77 331.593 1353.21 323.899C1347.76 316.205 1338.76 312.358 1326.22 312.358C1318.29 312.358 1311.01 314.134 1304.38 317.685C1297.87 321.117 1292.42 326.089 1288.04 332.599C1283.78 338.992 1280.88 346.686 1279.34 355.682ZM1608.98 514.063C1579.38 514.063 1555 508.203 1535.82 496.484C1516.77 484.647 1503.39 468.194 1495.7 447.124C1488 425.935 1486.46 401.373 1491.08 373.438C1495.7 345.502 1505.34 320.999 1520.02 299.929C1534.7 278.741 1553.58 262.287 1576.66 250.568C1599.74 238.731 1626.14 232.813 1655.85 232.813C1685.33 232.813 1709.59 238.731 1728.65 250.568C1747.83 262.287 1761.26 278.741 1768.96 299.929C1776.77 320.999 1778.37 345.502 1773.75 373.438C1769.13 401.373 1759.43 425.935 1744.63 447.124C1729.83 468.194 1710.89 484.647 1687.81 496.484C1664.85 508.203 1638.57 514.063 1608.98 514.063ZM1621.05 441.619C1629.57 441.619 1637.33 438.838 1644.31 433.274C1651.41 427.711 1657.45 419.78 1662.42 409.482C1667.51 399.183 1671.24 386.932 1673.61 372.727C1675.97 358.404 1676.33 346.153 1674.67 335.973C1673.02 325.675 1669.58 317.744 1664.37 312.18C1659.17 306.617 1652.3 303.835 1643.78 303.835C1635.25 303.835 1627.44 306.617 1620.34 312.18C1613.24 317.744 1607.2 325.675 1602.23 335.973C1597.26 346.153 1593.59 358.404 1591.22 372.727C1588.85 386.932 1588.44 399.183 1589.98 409.482C1591.64 419.78 1595.07 427.711 1600.28 433.274C1605.6 438.838 1612.53 441.619 1621.05 441.619Z" fill="url(#paint0_linear_271_105)"/>
<path d="M1789.66 509.091L1874.18 1.81198e-05H2093.92C2131.7 1.81198e-05 2163.52 7.45741 2189.37 22.3722C2215.23 37.2869 2233.79 58.2505 2245.06 85.2628C2256.33 112.275 2258.98 143.845 2253.01 179.972C2247.04 216.761 2233.79 248.497 2213.24 275.178C2192.85 301.693 2166.84 322.159 2135.18 336.577C2103.7 350.829 2068.4 357.955 2029.29 357.955H1898.04L1915.94 250.568H2019.35C2035.92 250.568 2050.5 247.751 2063.1 242.116C2075.69 236.316 2085.88 228.196 2093.67 217.756C2101.46 207.15 2106.51 194.555 2108.83 179.972C2111.15 165.388 2110.08 152.959 2105.6 142.685C2101.29 132.244 2093.84 124.29 2083.23 118.821C2072.79 113.187 2059.45 110.369 2043.21 110.369H1994.49L1927.87 509.091H1789.66ZM2526.45 342.045L2562.24 127.273H2699.46L2635.82 509.091H2505.57L2517.5 436.506H2513.52C2501.76 460.867 2484.19 479.924 2460.82 493.679C2437.62 507.268 2411.77 514.063 2383.27 514.063C2356.59 514.063 2334.3 507.931 2316.4 495.668C2298.5 483.404 2285.82 466.501 2278.37 444.957C2270.91 423.414 2269.42 398.722 2273.89 370.881L2314.66 127.273H2451.87L2416.08 342.045C2413.26 360.938 2415.66 375.769 2423.29 386.541C2431.08 397.313 2443.59 402.699 2460.82 402.699C2472.26 402.699 2482.53 400.296 2491.65 395.49C2500.93 390.518 2508.55 383.558 2514.52 374.609C2520.65 365.495 2524.63 354.64 2526.45 342.045ZM2927.34 1.81198e-05L2842.83 509.091H2705.61L2790.13 1.81198e-05H2927.34ZM3303.51 251.563H3180.21C3180.88 243.608 3179.47 236.813 3175.99 231.179C3172.51 225.545 3167.62 221.236 3161.32 218.253C3155.19 215.27 3148.23 213.778 3140.44 213.778C3126.85 213.778 3114.5 216.844 3103.4 222.976C3092.3 228.942 3086.08 236.813 3084.76 246.591C3083.93 250.402 3085.17 253.965 3088.49 257.28C3091.8 260.594 3100.5 263.66 3114.59 266.477L3190.16 280.398C3227.94 287.358 3255.45 300.036 3272.68 318.43C3290.08 336.66 3296.38 360.772 3291.58 390.767C3287.1 416.785 3275.67 439.157 3257.27 457.884C3238.88 476.61 3215.51 491.027 3187.17 501.136C3159 511.08 3127.84 516.051 3093.71 516.051C3033.55 516.051 2988.47 504.036 2958.48 480.007C2928.65 455.978 2915.06 424.574 2917.71 385.795H3050.95C3051.28 398.224 3055.43 407.588 3063.38 413.885C3071.5 420.017 3082.27 423.248 3095.7 423.58C3110.28 424.077 3123.04 421.177 3133.98 414.879C3144.91 408.416 3151.05 400.379 3152.37 390.767C3152.87 385.298 3150.47 381.155 3145.16 378.338C3140.03 375.521 3130.17 372.704 3115.58 369.886L3049.96 357.955C3012.17 351.16 2984.66 337.571 2967.43 317.188C2950.19 296.638 2944.23 270.455 2949.53 238.636C2953.84 213.281 2964.11 191.986 2980.35 174.751C2996.76 157.517 3018.3 144.508 3044.99 135.724C3071.67 126.776 3102.49 122.301 3137.46 122.301C3194.63 122.301 3237.88 133.819 3267.22 156.854C3296.71 179.723 3308.81 211.293 3303.51 251.563ZM3506.22 516.051C3465.46 516.051 3431.65 508.262 3404.8 492.685C3377.96 476.941 3359.07 454.403 3348.13 425.071C3337.19 395.573 3335.2 360.275 3342.16 319.176C3348.79 279.735 3362.46 245.265 3383.18 215.767C3404.06 186.269 3430.32 163.317 3461.98 146.911C3493.8 130.504 3529.43 122.301 3568.87 122.301C3597.7 122.301 3622.97 126.776 3644.68 135.724C3666.56 144.673 3684.37 157.682 3698.13 174.751C3711.88 191.821 3721.16 212.453 3725.97 236.648C3730.94 260.677 3730.94 287.855 3725.97 318.182L3721 350H3379.95L3391.88 274.432H3606.65C3608.31 263.494 3607.23 253.883 3603.42 245.597C3599.77 237.145 3593.89 230.599 3585.77 225.959C3577.82 221.153 3568.2 218.75 3556.93 218.75C3545.67 218.75 3535.06 221.153 3525.12 225.959C3515.34 230.765 3506.97 237.476 3500.01 246.094C3493.22 254.711 3488.66 264.82 3486.34 276.42L3471.42 355.966C3469.43 368.229 3470.18 379.167 3473.66 388.778C3477.14 398.39 3483.19 405.93 3491.81 411.399C3500.42 416.868 3511.53 419.602 3525.12 419.602C3534.4 419.602 3543.18 418.359 3551.47 415.874C3559.92 413.222 3567.38 409.411 3573.84 404.439C3580.47 399.302 3585.77 393.087 3589.75 385.795H3715.03C3706.08 412.311 3691.91 435.346 3672.52 454.901C3653.3 474.29 3629.6 489.37 3601.43 500.142C3573.42 510.748 3541.69 516.051 3506.22 516.051Z" fill="url(#paint1_linear_271_105)"/>
<rect width="1915" height="53" transform="translate(1793.97 586.091)" fill="#FE0F20"/>
<defs>
<linearGradient id="paint0_linear_271_105" x1="4.97266" y1="432.091" x2="3785.97" y2="432.091" gradientUnits="userSpaceOnUse">
<stop offset="0.129808" stop-color="#181616"/>
</linearGradient>
<linearGradient id="paint1_linear_271_105" x1="4.97266" y1="432.091" x2="3785.97" y2="432.091" gradientUnits="userSpaceOnUse">
<stop offset="0.129808" stop-color="#FE0F20"/>
</linearGradient>
</defs>
</svg>
